<svg width="20" height="20" viewBox="0 0 20 20" fill="none" xmlns="http://www.w3.org/2000/svg">
<path fill-rule="evenodd" clip-rule="evenodd" d="M14.5996 8C14.5996 11.3137 11.9133 14 8.59961 14C5.2859 14 2.59961 11.3137 2.59961 8C2.59961 4.68629 5.2859 2 8.59961 2C11.9133 2 14.5996 4.68629 14.5996 8ZM13.4398 14.3702C12.0959 15.3929 10.4186 16 8.59961 16C4.18133 16 0.599609 12.4183 0.599609 8C0.599609 3.58172 4.18133 0 8.59961 0C13.0179 0 16.5996 3.58172 16.5996 8C16.5996 9.87602 15.9539 11.6012 14.8725 12.9654L19.3678 18.3598C19.7214 18.7841 19.6641 19.4147 19.2398 19.7682C18.8155 20.1218 18.185 20.0645 17.8314 19.6402L13.4398 14.3702Z" fill="#9E9E9E"/>
</svg>
